<svg t="1695346114063" class="icon" viewBox="0 0 1024 1024" version="1.1" xmlns="http://www.w3.org/2000/svg" p-id="9744" id="mx_n_1695346114064" width="200" height="200"><path d="M512 512m-512 0a512 512 0 1 0 1024 0 512 512 0 1 0-1024 0Z" fill="#D0DDFE" p-id="9745"></path><path d="M208 176m80 0l448 0q80 0 80 80l0 512q0 80-80 80l-448 0q-80 0-80-80l0-512q0-80 80-80Z" fill="#FFFFFF" p-id="9746"></path><path d="M288 224a32 32 0 0 0-32 32v512a32 32 0 0 0 32 32h448a32 32 0 0 0 32-32V256a32 32 0 0 0-32-32H288m0-48h448a80 80 0 0 1 80 80v512a80 80 0 0 1-80 80H288a80 80 0 0 1-80-80V256a80 80 0 0 1 80-80z" fill="#FFFFFF" p-id="9747"></path><path d="M256 227.008m48 0l416 0q48 0 48 48l0 474q0 48-48 48l-416 0q-48 0-48-48l0-474q0-48 48-48Z" fill="#5D94FF" p-id="9748"></path><path d="M524 464m28 0l0 0q28 0 28 28l0 248q0 28-28 28l0 0q-28 0-28-28l0-248q0-28 28-28Z" fill="#FFFFFF" p-id="9749"></path><path d="M636 512m28 0l0 0q28 0 28 28l0 200q0 28-28 28l0 0q-28 0-28-28l0-200q0-28 28-28Z" fill="#FFFFFF" p-id="9750"></path><path d="M428 592m28 0l0 0q28 0 28 28l0 120q0 28-28 28l0 0q-28 0-28-28l0-120q0-28 28-28Z" fill="#FFFFFF" p-id="9751"></path><path d="M332 672m28 0l0 0q28 0 28 28l0 40q0 28-28 28l0 0q-28 0-28-28l0-40q0-28 28-28Z" fill="#FFFFFF" p-id="9752"></path><path d="M346.608 411.2a112.304 112.304 0 1 0 112.304-112v112z" fill="#D0DDFE" p-id="9753" data-spm-anchor-id="a313x.search_index.0.i8.5da63a81O32FJ5" class="selected"></path><path d="M579.984 411.136a121.088 121.088 0 0 1-242.176 0v-8.8h112.304v-112h8.8A120.88 120.88 0 0 1 580 411.2z m-224.224 8.864a103.504 103.504 0 1 0 112-111.696v111.696z" fill="#D0DDFE" p-id="9754"></path><path d="M432.976 385.264v-108.256a113.456 113.456 0 0 0-107.968 108" fill="#FFFFFF" p-id="9755"></path><path d="M729.264 370.08l31.6 253.6a10.528 10.528 0 0 1-16.4 9.984l-68.48-46.176a10.4 10.4 0 0 0-13.664 1.68c-30.192 33.664-172.064 145.12-335.28 70.448a10.528 10.528 0 0 1 3.312-20.192c38.496-2.704 97.056 13.232 152.128-48.48a760.416 760.416 0 0 0 61.296-79.808 10.768 10.768 0 0 0-2.704-14.816l2.72-80.864c-3.424-2.32 172.256-54.304 172.256-54.304a10.528 10.528 0 0 1 13.136 8.864z" fill="#216CFF" p-id="9756"></path><path d="M692.544 318.368l35.008 245.824a10.24 10.24 0 0 1-15.696 10.048l-67.296-43.712a10.096 10.096 0 0 0-13.264 1.856c-28.768 33.248-164.16 174.992-323.984 105.168a10.24 10.24 0 0 1 2.864-19.648 217.6 217.6 0 0 0 146.448-80.768 738.848 738.848 0 0 0 58.24-78.608 10.464 10.464 0 0 0-2.88-14.352l-73.952-48.048a10.24 10.24 0 0 1 2.784-18.416l238.8-67.744a10.24 10.24 0 0 1 12.912 8.4z" fill="#FFB444" p-id="9757"></path></svg>